<svg xmlns="http://www.w3.org/2000/svg">
  <symbol id="mail" width="25" height="25" viewBox="0 0 25 25" fill="none"
    xmlns="http://www.w3.org/2000/svg">
    <path d="M12.1094 0C5.41704 0 0 5.41597 0 12.1094C0 18.8017 5.41597 24.2188 12.1094 24.2188C14.4606 24.2188 16.7647 23.5283 18.7211 22.2547C19.3073 21.8731 19.4352 21.0688 18.9922 20.5276L18.4953 19.9205C18.1207 19.4629 17.4611 19.3508 16.9634 19.6701C15.5234 20.5936 13.8337 21.0938 12.1094 21.0938C7.15537 21.0938 3.125 17.0634 3.125 12.1094C3.125 7.15537 7.15537 3.125 12.1094 3.125C16.999 3.125 21.0938 5.93843 21.0938 10.9375C21.0938 12.8313 20.0638 14.8312 18.2534 15.0241C17.4063 15.0019 17.4277 14.3963 17.5954 13.5581L18.7396 7.64448C18.8795 6.92139 18.3256 6.25 17.5891 6.25H15.3928C15.2306 6.25 15.0741 6.30969 14.9531 6.4177C14.8322 6.5257 14.7552 6.67446 14.7369 6.8356L14.7364 6.84009C14.0188 5.96602 12.7614 5.77686 11.8082 5.77686C8.16655 5.77686 5.07812 8.81562 5.07812 13.1724C5.07812 16.361 6.87427 18.3418 9.76562 18.3418C11.0832 18.3418 12.5668 17.5783 13.4273 16.4701C13.8922 18.1353 15.4104 18.1353 16.8799 18.1353C22.1977 18.1353 24.2188 14.6386 24.2188 10.9375C24.2188 4.27993 18.8488 0 12.1094 0ZM11.0508 14.8647C9.96441 14.8647 9.28955 14.1019 9.28955 12.874C9.28955 10.6771 10.7924 9.32275 12.1523 9.32275C13.2408 9.32275 13.8907 10.0669 13.8907 11.3135C13.8907 13.5137 12.2366 14.8647 11.0508 14.8647Z" fill="black"/>
  </symbol>
  <symbol id="phone" width="25" height="25" viewBox="0 0 25 25" fill="none"
    xmlns="http://www.w3.org/2000/svg">
    <path d="M24.2866 17.6656L18.8179 15.3218C18.5843 15.2223 18.3246 15.2013 18.078 15.262C17.8315 15.3228 17.6113 15.462 17.4507 15.6587L15.0288 18.6177C11.2279 16.8256 8.16904 13.7668 6.37695 9.96587L9.33594 7.54399C9.53305 7.38368 9.67256 7.16351 9.73335 6.91682C9.79414 6.67013 9.7729 6.41035 9.67285 6.1768L7.3291 0.708053C7.21929 0.4563 7.02508 0.250751 6.77996 0.126852C6.53483 0.00295173 6.25416 -0.0315334 5.98633 0.0293424L0.908203 1.20122C0.649985 1.26085 0.419602 1.40624 0.254656 1.61366C0.0897096 1.82109 -5.94829e-05 2.07829 2.95713e-08 2.34331C2.95713e-08 14.8677 10.1514 24.9996 22.6562 24.9996C22.9213 24.9997 23.1787 24.91 23.3862 24.7451C23.5937 24.5801 23.7392 24.3497 23.7988 24.0914L24.9707 19.0132C25.0312 18.7441 24.996 18.4623 24.8711 18.2163C24.7463 17.9704 24.5396 17.7756 24.2866 17.6656Z" fill="black"/>
  </symbol>

  <symbol id="address" width="22" height="25" viewBox="0 0 22 25" fill="none"
    xmlns="http://www.w3.org/2000/svg">
    <path d="M21.875 17.5781V1.17188C21.875 0.522461 21.3525 0 20.7031 0H4.6875C2.09961 0 0 2.09961 0 4.6875V20.3125C0 22.9004 2.09961 25 4.6875 25H20.7031C21.3525 25 21.875 24.4775 21.875 23.8281V23.0469C21.875 22.6807 21.7041 22.3486 21.4404 22.1338C21.2354 21.3818 21.2354 19.2383 21.4404 18.4863C21.7041 18.2764 21.875 17.9443 21.875 17.5781ZM6.25 6.54297C6.25 6.38184 6.38184 6.25 6.54297 6.25H16.8945C17.0557 6.25 17.1875 6.38184 17.1875 6.54297V7.51953C17.1875 7.68066 17.0557 7.8125 16.8945 7.8125H6.54297C6.38184 7.8125 6.25 7.68066 6.25 7.51953V6.54297ZM6.25 9.66797C6.25 9.50684 6.38184 9.375 6.54297 9.375H16.8945C17.0557 9.375 17.1875 9.50684 17.1875 9.66797V10.6445C17.1875 10.8057 17.0557 10.9375 16.8945 10.9375H6.54297C6.38184 10.9375 6.25 10.8057 6.25 10.6445V9.66797ZM18.623 21.875H4.6875C3.82324 21.875 3.125 21.1768 3.125 20.3125C3.125 19.4531 3.82812 18.75 4.6875 18.75H18.623C18.5303 19.585 18.5303 21.04 18.623 21.875Z" fill="black"/>
  </symbol>
  <symbol id="time" width="25" height="25" viewBox="0 0 25 25" fill="none"
    xmlns="http://www.w3.org/2000/svg">
    <path d="M12.1094 0C5.41992 0 0 5.41992 0 12.1094C0 18.7988 5.41992 24.2188 12.1094 24.2188C18.7988 24.2188 24.2188 18.7988 24.2188 12.1094C24.2188 5.41992 18.7988 0 12.1094 0ZM14.8975 17.0947L10.5908 13.9648C10.4395 13.8525 10.3516 13.6768 10.3516 13.4912V5.27344C10.3516 4.95117 10.6152 4.6875 10.9375 4.6875H13.2812C13.6035 4.6875 13.8672 4.95117 13.8672 5.27344V11.9971L16.9678 14.2529C17.2314 14.4434 17.2852 14.8096 17.0947 15.0732L15.7178 16.9678C15.5273 17.2266 15.1611 17.2852 14.8975 17.0947Z" fill="black"/>
  </symbol>
  <symbol id="top" xmlns="http://www.w3.org/2000/svg" fill="none" viewBox="0 0 24 24" stroke-width="1.5" stroke="currentColor" class="size-6">
	<path stroke-linecap="round" stroke-linejoin="round" d="m4.5 15.75 7.5-7.5 7.5 7.5" />
  </symbol>
  <symbol id="menu" xmlns="http://www.w3.org/2000/svg" fill="#ffffff" viewBox="0 0 24 24" stroke-width="1.5" stroke="currentColor" class="size-6">
    <path stroke-linecap="round" stroke-linejoin="round" d="M3.75 6.75h16.5M3.75 12h16.5m-16.5 5.25h16.5" />
  </symbol>

</svg>